<?xml version="1.0" encoding="UTF-8" standalone="no"?><!DOCTYPE svg PUBLIC "-//W3C//DTD SVG 1.1//EN" "http://www.w3.org/Graphics/SVG/1.1/DTD/svg11.dtd"><svg width="550px" height="228px" version="1.1" xmlns="http://www.w3.org/2000/svg" xmlns:xlink="http://www.w3.org/1999/xlink" xml:space="preserve" xmlns:serif="http://www.serif.com/" style="fill-rule:evenodd;clip-rule:evenodd;stroke-linejoin:round;stroke-miterlimit:2;"><g transform="matrix(0.75,0,0,0.75,-2962.47,-1927.39)"><g id="Artboard3" transform="matrix(0.317889,0,0,0.314867,3721.57,1940.42)"><rect x="718.478" y="1999.03" width="2303.67" height="964.8" style="fill:none;"/><clipPath id="_clip1"><rect x="718.478" y="1999.03" width="2303.67" height="964.8"/></clipPath><g clip-path="url(#_clip1)"><g transform="matrix(2.14726,0,0,2.71257,-2344.37,-4315.22)"><g transform="matrix(1.25126,0,0,1,-3533.05,-249.802)"><path d="M4052.67,2789.7L4049.7,2802.02L4028.32,2797.95C4018.24,2796.03 4012.39,2793.8 4011.05,2793.29C4003.64,2790.46 3999.86,2786.59 3999.07,2785.79C3998.29,2784.99 3994.45,2781.1 3992.22,2773.69C3990.06,2766.49 3990.05,2756.86 3990.05,2755.39L3990.05,2654.14L3963.56,2649.1L3963.56,2623.41L3974.61,2615.74L3990.05,2618.68L3990.05,2585.25L4001.1,2577.58L4026.69,2582.45L4026.69,2625.65L4057.7,2631.55L4057.7,2644.79L4063.72,2636.16L4087.8,2640.74L4087.8,2668.11C4090.76,2664.99 4094.34,2661.92 4098.53,2659.52C4101.94,2655.94 4106.19,2652.45 4111.29,2650.03C4125.1,2643.45 4142.45,2647.44 4145.61,2648.13L4145.61,2657.87L4151.63,2649.24L4177.22,2654.11L4177.22,2759.81C4177.22,2770.77 4181.09,2778.88 4185.65,2784.3C4193.92,2794.14 4205.57,2796.52 4208.83,2797.14C4210.42,2797.44 4220.57,2799.37 4229.15,2797.39C4231.64,2796.82 4233.81,2796.02 4235.66,2795.15C4237.38,2792.91 4239.51,2789.54 4241.06,2785.03C4241.54,2783.62 4243.84,2776.91 4243.84,2766.65L4243.84,2678.41C4243.84,2677.95 4244.04,2677.52 4244.39,2677.23C4244.74,2676.94 4245.2,2676.82 4245.65,2676.91L4254.89,2668.89L4280.48,2673.76L4280.48,2733.66C4280.64,2733.23 4280.81,2732.8 4280.98,2732.38C4286.54,2718.61 4294.93,2711.11 4296.58,2709.63C4298.87,2707.58 4301.5,2705.62 4304.42,2703.85C4305.7,2702.52 4306.67,2701.65 4307.12,2701.24C4312.92,2696.05 4321.01,2691.46 4330.3,2689.14C4344.53,2685.58 4359.02,2688.7 4359.65,2688.82C4363.99,2689.65 4380.59,2692.91 4394.12,2703.79C4403.58,2711.4 4411.17,2720.69 4416.1,2729.36C4420.83,2737.67 4423.72,2745.6 4425.43,2751.35C4426.21,2738.59 4428.67,2727.37 4431.72,2718.36C4436.57,2704.04 4444.05,2693.09 4451.49,2685.5C4454.76,2682.17 4458.68,2678.89 4463.26,2675.9C4470.57,2668.83 4480.9,2662.14 4494.32,2658.19C4513.65,2652.51 4534.52,2656.51 4539.18,2657.39C4558.85,2661.14 4573.86,2668.4 4584.03,2675.26C4597.37,2684.26 4608.3,2695.26 4616.24,2706.38C4624.58,2718.05 4631.37,2731.76 4635.66,2746.05C4640,2760.5 4642.14,2776.02 4642.14,2789.58C4642.14,2805.72 4639.34,2819.8 4635.66,2830.65C4631.08,2844.15 4624.14,2854.61 4617.12,2862.02C4614.15,2866.46 4610.98,2870.29 4607.81,2873.52C4600.27,2881.2 4589.33,2888.5 4574.93,2892.62C4555.3,2898.25 4534.09,2894.2 4529.37,2893.3C4509.31,2889.49 4494.13,2882.14 4483.95,2875.36C4470.51,2866.39 4459.43,2855.33 4451.34,2844.01C4442.91,2832.2 4436.05,2818.34 4431.7,2803.89C4430.25,2799.06 4429.05,2794.11 4428.08,2789.16C4428.08,2789.16 4422.16,2797.83 4422.1,2799.13C4422.08,2799.58 4421.87,2799.99 4421.53,2800.26C4421.18,2800.54 4420.73,2800.65 4420.29,2800.57L4314.55,2780.45C4315.13,2783.8 4315.79,2786.11 4316,2786.86C4316.43,2788.37 4318.71,2796.37 4324.73,2804.45C4325.72,2805.78 4330.75,2812.53 4340.09,2818.43C4341.67,2819.43 4349.42,2824.34 4362.06,2826.75C4364.37,2827.18 4376.3,2829.58 4386.47,2825.47C4389.89,2820.57 4391.04,2815.35 4391.39,2813.81C4391.57,2813.01 4392.36,2812.5 4393.17,2812.65C4393.17,2812.65 4402.11,2805.92 4402.4,2804.63L4427.69,2809.44C4426.94,2813.07 4423.92,2828 4412.53,2838.44C4409.02,2844.41 4403.88,2850.47 4396.33,2854.65C4378.24,2864.65 4355.82,2860.28 4351.35,2859.43C4348.59,2858.9 4332.39,2855.81 4318.47,2847.16C4304.52,2838.5 4296.54,2827.9 4295.02,2825.88C4293.48,2823.84 4285.53,2813.28 4280.78,2797.37C4280.71,2797.12 4280.6,2796.78 4280.48,2796.34L4280.48,2833.05L4272.48,2842.57C4272.48,2843.03 4272.28,2843.46 4271.93,2843.75C4271.58,2844.04 4271.12,2844.16 4270.67,2844.07L4246.59,2839.49C4245.86,2839.35 4245.34,2838.72 4245.34,2837.99L4245.34,2813.94C4242.06,2818.35 4235.77,2825.21 4225.99,2828.59C4212.96,2833.09 4198.56,2830.35 4195.41,2829.75C4193.23,2829.34 4179.76,2826.76 4169.33,2820.63C4158.8,2814.45 4153.38,2806.95 4152.31,2805.47C4151.27,2804.04 4145.81,2796.5 4143.18,2785.32C4142.74,2783.45 4140.58,2774.29 4140.58,2761.45L4140.58,2674.41C4139.67,2674.28 4137.61,2684.74 4137.61,2684.74C4137.61,2685.2 4137.41,2685.63 4137.06,2685.92C4136.71,2686.21 4136.24,2686.33 4135.8,2686.24C4133.78,2685.86 4120.79,2683.37 4110.19,2685.47C4103.35,2686.83 4098.72,2689.68 4096.07,2691.76C4094.71,2694.34 4093.37,2697.53 4092.32,2701.36C4089.31,2712.38 4089.31,2725.33 4089.31,2727.43L4089.31,2796.67L4081.32,2806.19C4081.32,2806.65 4081.11,2807.08 4080.76,2807.37C4080.41,2807.66 4079.95,2807.78 4079.5,2807.69L4053.91,2802.82C4053.19,2802.69 4052.67,2802.06 4052.67,2801.32L4052.67,2789.7ZM4052.67,2653.17L4049.7,2665.49L4026.69,2661.12L4026.69,2748.33C4026.69,2752.84 4027.29,2755.12 4027.44,2755.69C4028.2,2758.55 4029.97,2760.16 4030.3,2760.45C4030.7,2760.81 4032.41,2762.36 4036.17,2763.53C4036.94,2763.77 4039.94,2764.7 4045.96,2765.84L4052.67,2767.12L4052.67,2653.17ZM4389.73,2759.74C4389.26,2758.15 4388.69,2756.48 4388,2754.77C4384.63,2746.38 4379.84,2740.77 4378.92,2739.7C4378.01,2738.63 4373.21,2733.01 4365.44,2728.23C4364.19,2727.46 4357.69,2723.46 4348.34,2721.68C4338.76,2719.86 4332.41,2721.34 4331.06,2721.65C4324.01,2723.31 4319.56,2726.73 4318.25,2727.81C4317.99,2728.3 4317.75,2728.81 4317.51,2729.33C4316.96,2730.52 4314.19,2736.51 4313.59,2745.25L4389.73,2759.74ZM4583.08,2852.45C4583.89,2851.61 4584.65,2850.75 4585.38,2849.88C4586.83,2848.12 4594.2,2839.18 4598.33,2824.51C4599,2822.11 4602.49,2809.7 4602.49,2793.66C4602.49,2791.04 4602.48,2777.59 4598.32,2761.17C4594.16,2744.8 4586.67,2732.89 4585.26,2730.64C4579.89,2722.09 4571.95,2713.28 4562.47,2706.33C4555.54,2701.25 4544.59,2695.4 4529.37,2692.5C4526.05,2691.87 4510.36,2688.8 4496.44,2693.7C4488.76,2696.41 4482.43,2700.52 4477.53,2705.26C4474.74,2709.72 4471.37,2716.24 4469.03,2724.58C4468.35,2727.01 4464.82,2739.58 4464.82,2755.84C4464.82,2758.49 4464.82,2772.09 4469.03,2788.7C4473.25,2805.31 4480.84,2817.39 4482.28,2819.67C4487.74,2828.36 4495.81,2837.33 4505.46,2844.4C4512.52,2849.58 4523.67,2855.55 4539.18,2858.5C4542.58,2859.14 4558.64,2862.26 4572.89,2857.24C4576.6,2855.93 4580,2854.31 4583.08,2852.45ZM4813.28,2899.97C4811.46,2902.53 4805.78,2909.3 4805,2910.38C4799.82,2917.62 4792.78,2923.38 4784.67,2927.01C4782.61,2927.93 4772.37,2932.51 4757.16,2933.15C4754.76,2933.25 4742.08,2933.78 4727.16,2930.94C4708.9,2927.47 4695.25,2921.04 4692.62,2919.81C4676.29,2912.12 4665.94,2902.35 4663.93,2900.45C4656.09,2893.06 4649.18,2883.58 4644.32,2872.82C4640.79,2865.01 4637.11,2852.9 4637.11,2836.98C4637.11,2836.52 4637.31,2836.09 4637.66,2835.8C4638.01,2835.51 4645.39,2829.75 4648.16,2827.45L4675.25,2832.61C4675.25,2846.16 4679.65,2855.16 4680.52,2856.95C4685.79,2867.73 4693,2874.42 4694.37,2875.69C4695.77,2876.99 4702.95,2883.64 4714.39,2888.83C4725.83,2894.02 4735.93,2895.94 4737.87,2896.31C4747.5,2898.14 4755.73,2898.19 4757.29,2898.2C4767.07,2898.25 4773.56,2895.87 4774.9,2895.38C4775.52,2895.15 4776.12,2894.91 4776.69,2894.65L4776.79,2894.51C4781.36,2888.23 4781.31,2878.51 4781.31,2877.06C4781.31,2868.63 4778.39,2862.42 4775.73,2858.78C4774.76,2857.45 4770.01,2850.96 4760.49,2844.9C4758.83,2843.85 4750.81,2838.75 4738.61,2833.74L4738.6,2833.74L4713.47,2823.39L4713.46,2823.39C4700.62,2818.07 4690.22,2812.92 4688.23,2811.94C4675.73,2805.75 4667.46,2798.96 4665.81,2797.61C4655.79,2789.38 4650.74,2779.99 4649.78,2778.21C4643.35,2766.26 4643.73,2752.32 4643.73,2751.84C4643.73,2748.82 4643.73,2735.14 4650.58,2724.14C4654.72,2717.51 4660.31,2712.2 4666.69,2708.51C4670.28,2704.66 4674.47,2701.52 4679.01,2699.21C4680.86,2698.27 4690,2693.62 4704,2692.53C4706.3,2692.34 4718,2691.43 4732.75,2694.23C4749.31,2697.38 4761.12,2702.9 4763.46,2703.99C4777.61,2710.6 4786.57,2719.37 4788.3,2721.06C4789.99,2722.72 4798.98,2731.52 4805.15,2745.49C4806.21,2747.87 4811.93,2772.56 4811.93,2777.34C4811.93,2778.21 4805.03,2786.18 4803.4,2788.02C4803.11,2788.35 4802.58,2788.45 4802.12,2788.36L4775.03,2783.2C4774.36,2783.08 4773.86,2782.53 4773.79,2781.86C4773.34,2777.38 4771.43,2758.79 4757.57,2746.08C4743.79,2733.45 4726.44,2730.01 4721.74,2729.11C4712.87,2727.42 4705.69,2727.54 4704.29,2727.56C4695.89,2727.7 4690.48,2730.03 4689.36,2730.51C4688.89,2730.71 4687.39,2731.36 4685.54,2732.65C4683.38,2738.32 4683.38,2744.53 4683.38,2745.65C4683.38,2755.58 4688.34,2761.74 4689.25,2762.87C4690.27,2764.14 4695.12,2770.16 4704.9,2775.94C4706.6,2776.94 4714.69,2781.71 4727.03,2786.62C4729.05,2787.42 4739.38,2791.53 4752.17,2796.97C4754.22,2797.84 4764.96,2802.42 4777.31,2808.83C4789.65,2815.24 4797.84,2822.6 4799.44,2824.03C4809.22,2832.82 4814.16,2842.63 4815.09,2844.47C4821.38,2856.96 4820.96,2871.77 4820.96,2872.08C4820.96,2875.13 4821,2889.18 4813.28,2899.97Z" style="fill:rgb(51,49,48);"/></g><g transform="matrix(1.25126,0,0,1,-3250.49,-318.632)"><path d="M3767.29,2700.98L3767.29,2657.78L3789.83,2662.06L3789.83,2705.26L3820.84,2711.16L3820.84,2730.63L3789.83,2724.73L3789.83,2826.68C3789.83,2831.43 3790.47,2833.83 3790.63,2834.44C3791.5,2837.74 3793.56,2839.59 3793.94,2839.94C3794.37,2840.33 3796.25,2842.05 3800.38,2843.34C3801.17,2843.58 3804.21,2844.53 3810.34,2845.69L3820.84,2847.69L3820.84,2867.16L3803.08,2863.78C3793.3,2861.92 3787.63,2859.76 3786.33,2859.26C3779.6,2856.69 3776.15,2853.21 3775.43,2852.47C3774.74,2851.76 3771.33,2848.27 3769.34,2841.64C3767.28,2834.79 3767.29,2825.62 3767.29,2824.22L3767.29,2720.44L3740.8,2715.4L3740.8,2695.93L3767.29,2700.98ZM3850.94,2720.36L3850.94,2751.91C3850.94,2752.64 3851.46,2753.27 3852.18,2753.41L3852.78,2753.52C3853.44,2753.65 3854.1,2753.33 3854.41,2752.75C3855.27,2751.16 3857.79,2746.47 3861.99,2741.49C3862.99,2740.3 3864.09,2739.1 3865.28,2737.91C3868.39,2734.82 3872.17,2731.87 3876.61,2729.76C3888.77,2723.96 3903.77,2726.66 3908.74,2727.71L3908.74,2751.75C3904.2,2750.98 3893.1,2749.45 3883.78,2751.3C3879.96,2752.06 3876.77,2753.25 3874.18,2754.53C3869.07,2757.06 3866.28,2759.98 3865.52,2760.76C3864.35,2761.98 3858.63,2767.88 3855.51,2779.31C3852.45,2790.49 3852.45,2803.65 3852.45,2805.78L3852.45,2873.18L3829.91,2868.89L3829.91,2716.35L3850.94,2720.36ZM3940.35,2733.72L3940.35,2838.16C3940.35,2849.57 3944.4,2857.99 3949.14,2863.63C3957.73,2873.86 3969.82,2876.34 3973.2,2876.99C3974.85,2877.3 3985.31,2879.27 3994.15,2877.23C4003.17,2875.15 4008.2,2870.27 4009.17,2869.33C4009.92,2868.6 4013.03,2865.6 4015.78,2860.33C4016.63,2858.72 4017.44,2856.89 4018.14,2854.85C4018.64,2853.37 4021.08,2846.3 4021.08,2835.48L4021.08,2749.08L4043.61,2753.37L4043.61,2909.55L4022.58,2905.55L4022.58,2878.82C4022.58,2878.64 4022.55,2878.47 4022.5,2878.32C4022.32,2877.81 4021.89,2877.42 4021.34,2877.32L4020.74,2877.2C4020.12,2877.09 4019.5,2877.36 4019.16,2877.89C4018.43,2879.05 4016.89,2881.44 4014.48,2884.13C4011.14,2887.85 4006.11,2892.14 3999.18,2894.53C3986.81,2898.8 3973.15,2896.15 3970.16,2895.58C3968.07,2895.18 3955.1,2892.72 3945.06,2886.83C3935.12,2880.99 3929.98,2873.9 3928.97,2872.51C3927.99,2871.15 3922.82,2864.02 3920.34,2853.45C3919.91,2851.64 3917.82,2842.74 3917.82,2830.28L3917.82,2729.43L3940.35,2733.72ZM4071.22,2782.21C4071.95,2781.5 4072.5,2781.01 4072.8,2780.74C4078.44,2775.69 4086.31,2771.23 4095.34,2768.97C4109.25,2765.49 4123.41,2768.56 4124.03,2768.68C4128.28,2769.48 4144.56,2772.66 4157.83,2783.33C4167.13,2790.81 4174.59,2799.94 4179.44,2808.47C4187.59,2822.8 4190.21,2835.99 4190.7,2838.5C4192.07,2845.41 4192.75,2851.44 4193.07,2856.24C4193.36,2860.66 4193.35,2864.03 4193.3,2866.06L4078.54,2844.22C4078.1,2844.14 4077.65,2844.25 4077.3,2844.53C4076.95,2844.81 4076.74,2845.23 4076.73,2845.68C4076.42,2855.89 4078.75,2864.08 4079.2,2865.63C4079.64,2867.18 4081.98,2875.41 4088.17,2883.71C4089.18,2885.08 4094.35,2892.01 4103.93,2898.08C4105.55,2899.1 4113.49,2904.13 4126.44,2906.6C4129.02,2907.09 4143.1,2909.85 4154.07,2904.15C4160.07,2901.03 4163.65,2895.93 4165.76,2891.49C4167.04,2888.8 4167.79,2886.36 4168.21,2884.75L4190.54,2889C4189.52,2893.58 4186.7,2904.13 4179.02,2912.77C4176.34,2915.79 4173.05,2918.58 4169.04,2920.8C4151.77,2930.35 4130.37,2926.07 4126.11,2925.25C4123.43,2924.74 4107.74,2921.77 4094.26,2913.4C4080.81,2905.05 4073.11,2894.82 4071.65,2892.88C4070.16,2890.9 4062.48,2880.69 4057.89,2865.32C4057.45,2863.84 4055.95,2858.81 4054.66,2851.44C4053.75,2846.2 4052.94,2839.77 4052.69,2832.59C4052.69,2830.76 4052.69,2822.72 4054.66,2813.47C4055.43,2809.85 4056.51,2806.04 4058,2802.35C4062.25,2791.82 4068.23,2785.15 4071.22,2782.21ZM4227.09,2757.26C4227.35,2757 4227.61,2756.73 4227.86,2756.47C4235.06,2749.13 4245.56,2742.08 4259.41,2738.01C4278.43,2732.42 4298.97,2736.38 4303.55,2737.25C4322.98,2740.94 4337.8,2748.11 4347.84,2754.88C4361.02,2763.77 4371.82,2774.63 4379.66,2785.62C4387.91,2797.16 4394.62,2810.71 4398.86,2824.84C4403.16,2839.15 4405.27,2854.51 4405.27,2867.93C4405.27,2883.88 4402.51,2897.8 4398.88,2908.51C4394.2,2922.32 4387,2932.89 4379.82,2940.21C4379.51,2940.52 4379.19,2940.84 4378.88,2941.15C4371.69,2948.17 4361.5,2954.73 4348.28,2958.52C4329.25,2963.96 4308.7,2960 4304.12,2959.13C4284.57,2955.41 4269.76,2948.26 4259.83,2941.64C4246.72,2932.9 4235.91,2922.11 4228.01,2911.06C4219.77,2899.52 4213.06,2885.97 4208.82,2871.84C4206.9,2865.44 4205.41,2858.84 4204.36,2852.29C4203.28,2845.61 4202.66,2839 4202.47,2832.72C4202.43,2831.38 4202.41,2830.05 4202.41,2828.75C4202.41,2812.8 4205.17,2798.88 4208.8,2788.17C4213.32,2774.85 4220.17,2764.55 4227.09,2757.26ZM4167.27,2829.21C4166.7,2827.1 4165.97,2824.82 4165.02,2822.46C4161.47,2813.6 4156.4,2807.68 4155.43,2806.54C4154.47,2805.41 4149.41,2799.49 4141.22,2794.45C4139.9,2793.64 4133.01,2789.4 4123.1,2787.51C4112.81,2785.55 4105.99,2787.17 4104.55,2787.51C4101.4,2788.25 4098.73,2789.31 4096.57,2790.39C4093,2792.17 4090.82,2794 4090.22,2794.51C4089.25,2795.32 4084.24,2799.53 4080.78,2807.04C4080.21,2808.27 4077.35,2814.47 4076.73,2823.5C4076.68,2824.27 4077.21,2824.96 4077.97,2825.1L4167.38,2842.12C4167.85,2842.21 4168.33,2842.07 4168.68,2841.76C4169.03,2841.45 4169.22,2840.99 4169.19,2840.51C4169.12,2839.43 4168.82,2834.99 4167.27,2829.21ZM4366.68,2914.03C4369.55,2909.47 4373.04,2902.76 4375.45,2894.16C4376.15,2891.7 4379.73,2878.96 4379.73,2862.49C4379.73,2859.81 4379.73,2846.05 4375.47,2829.25C4371.19,2812.41 4363.49,2800.16 4362.03,2797.84C4356.47,2789 4348.27,2779.88 4338.46,2772.69C4331.27,2767.42 4319.92,2761.34 4304.12,2758.33C4300.64,2757.67 4284.2,2754.51 4269.61,2759.65C4265.74,2761.02 4262.19,2762.72 4258.97,2764.68C4253.64,2767.91 4249.23,2771.84 4245.76,2776.03C4244.25,2777.86 4236.53,2787.19 4232.22,2802.52C4231.53,2804.98 4227.95,2817.72 4227.95,2834.19C4227.95,2836.87 4227.95,2850.63 4232.21,2867.43C4236.49,2884.27 4244.19,2896.52 4245.65,2898.84C4251.21,2907.68 4259.41,2916.8 4269.22,2923.99C4276.41,2929.26 4287.76,2935.34 4303.55,2938.35C4307.04,2939.01 4323.47,2942.17 4338.07,2937.03C4348.37,2933.4 4356.36,2927.37 4361.92,2920.65C4362.58,2919.85 4364.44,2917.6 4366.68,2914.03ZM4438.4,2912.23C4438.66,2925.45 4442.94,2934.18 4443.81,2935.97C4449.2,2947.01 4456.59,2953.86 4457.99,2955.16C4459.43,2956.49 4466.75,2963.28 4478.42,2968.57C4490.03,2973.84 4500.28,2975.79 4502.25,2976.16C4512.02,2978.02 4520.36,2978.07 4521.94,2978.08C4532.03,2978.14 4538.71,2975.67 4540.09,2975.16C4548.36,2972.13 4552.65,2966.22 4553.44,2965.14C4554.48,2963.71 4555.32,2962.12 4555.98,2960.48C4558.52,2954.17 4558.55,2947.16 4558.55,2945.89C4558.55,2936.62 4555.3,2929.81 4552.39,2925.81C4551.36,2924.41 4546.36,2917.55 4536.32,2911.16C4534.62,2910.08 4526.43,2904.86 4513.95,2899.75L4488.82,2889.39C4476.07,2884.12 4465.74,2879.01 4463.77,2878.03C4451.59,2872 4443.54,2865.39 4441.94,2864.07C4432.39,2856.23 4427.57,2847.28 4426.66,2845.59C4420.58,2834.3 4420.97,2821.12 4420.97,2820.67C4420.97,2817.83 4420.91,2804.94 4427.36,2794.59C4429.47,2791.21 4431.98,2788.19 4434.8,2785.59C4437.7,2782.91 4440.93,2780.67 4444.37,2778.92C4446.17,2778.01 4455.11,2773.47 4468.78,2772.4C4471.05,2772.22 4482.59,2771.32 4497.13,2774.09C4513.49,2777.2 4525.17,2782.65 4527.48,2783.73C4541.38,2790.22 4550.2,2798.85 4551.89,2800.5C4553.55,2802.13 4562.37,2810.76 4568.42,2824.46C4569.2,2826.22 4572.23,2833.09 4573.93,2843.85C4574.41,2846.88 4574.79,2850.21 4574.98,2853.83L4550.9,2849.24C4550.2,2843.07 4547.47,2825.18 4533.82,2812.66C4519.46,2799.49 4501.4,2795.87 4496.5,2794.94C4487.31,2793.19 4479.88,2793.31 4478.42,2793.34C4469.53,2793.49 4463.76,2795.92 4462.41,2796.5C4462.39,2796.51 4462.36,2796.52 4462.34,2796.53C4461.23,2797.01 4455.14,2799.64 4450.82,2806.34C4446.56,2812.95 4446.52,2822.55 4446.52,2824C4446.52,2834.49 4451.76,2840.99 4452.72,2842.18C4453.77,2843.49 4458.74,2849.67 4468.79,2855.61C4470.5,2856.61 4478.67,2861.44 4491.13,2866.39C4493.15,2867.2 4503.46,2871.29 4516.23,2876.73C4518.27,2877.6 4528.98,2882.15 4541.27,2888.54C4553.43,2894.86 4561.5,2902.11 4563.08,2903.52C4572.65,2912.11 4577.48,2921.71 4578.39,2923.51C4584.52,2935.69 4584.1,2950.13 4584.1,2950.43C4584.1,2953.39 4584.17,2966.99 4576.7,2977.44C4575.45,2979.19 4574.07,2980.86 4572.6,2982.41C4568.36,2986.89 4563.26,2990.52 4557.6,2993.05C4555.63,2993.93 4545.81,2998.31 4531.22,2998.93C4528.87,2999.03 4516.49,2999.55 4501.92,2996.77C4484.05,2993.37 4470.68,2987.08 4468.11,2985.87C4452.23,2978.4 4442.17,2968.91 4440.21,2967.06C4432.65,2959.92 4425.98,2950.77 4421.29,2940.39C4418.02,2933.16 4414.63,2922.11 4414.36,2907.66L4438.4,2912.23Z" style="fill:white;"/></g></g></g></g></g></svg>