<?xml version="1.0" encoding="UTF-8" standalone="no"?><!DOCTYPE svg PUBLIC "-//W3C//DTD SVG 1.1//EN" "http://www.w3.org/Graphics/SVG/1.1/DTD/svg11.dtd"><svg width="286px" height="286px" version="1.1" xmlns="http://www.w3.org/2000/svg" xmlns:xlink="http://www.w3.org/1999/xlink" xml:space="preserve" xmlns:serif="http://www.serif.com/" style="fill-rule:evenodd;clip-rule:evenodd;stroke-linejoin:round;stroke-miterlimit:2;"><rect id="Artboard5" x="0" y="0" width="285.789" height="285.789" style="fill:none;"/><g><path d="M124.435,58.965L124.435,0L155.191,5.853L155.191,64.818L197.514,72.872L197.514,99.444L155.191,91.39L155.191,230.535C155.191,237.026 156.07,240.301 156.287,241.124C157.475,245.628 160.288,248.164 160.808,248.634C161.398,249.168 163.955,251.523 169.602,253.275C170.668,253.606 174.825,254.899 183.184,256.49L197.514,259.217L197.514,285.789L173.28,281.177C159.928,278.636 152.188,275.686 150.418,275.011C141.228,271.502 136.53,266.746 135.548,265.746C134.596,264.777 129.939,260.009 127.223,250.956C124.418,241.605 124.435,229.091 124.435,227.176L124.435,85.537L88.275,78.656L88.275,52.083L124.435,58.965Z" style="fill:white;"/><path d="M124.435,58.965L124.435,0L155.191,5.853L155.191,64.818L197.514,72.872L197.514,99.444L155.191,91.39L155.191,230.535C155.191,237.026 156.07,240.301 156.287,241.124C157.475,245.628 160.288,248.164 160.808,248.634C161.398,249.168 163.955,251.523 169.602,253.275C170.668,253.606 174.825,254.899 183.184,256.49L197.514,259.217L197.514,285.789L173.28,281.177C159.928,278.636 152.188,275.686 150.418,275.011C141.228,271.502 136.53,266.746 135.548,265.746C134.596,264.777 129.939,260.009 127.223,250.956C124.418,241.605 124.435,229.091 124.435,227.176L124.435,85.537L88.275,78.656L88.275,52.083L124.435,58.965Z" style="fill:white;"/></g></svg>