<?xml version="1.0" encoding="UTF-8" standalone="no"?><!DOCTYPE svg PUBLIC "-//W3C//DTD SVG 1.1//EN" "http://www.w3.org/Graphics/SVG/1.1/DTD/svg11.dtd"><svg width="904px" height="245px" version="1.1" xmlns="http://www.w3.org/2000/svg" xmlns:xlink="http://www.w3.org/1999/xlink" xml:space="preserve" xmlns:serif="http://www.serif.com/" style="fill-rule:evenodd;clip-rule:evenodd;stroke-linejoin:round;stroke-miterlimit:2;"><rect id="Artboard3" x="0" y="0" width="903.409" height="244.517" style="fill:none;"/><clipPath id="_clip1"><rect x="0" y="0" width="903.409" height="244.517"/></clipPath><g clip-path="url(#_clip1)"><path d="M22.845,25.996L51.519,25.996L51.519,72.788L78.46,72.788L78.46,95.948L51.519,95.948L51.519,206.39C51.519,212.272 53.514,216.211 57.506,218.206C59.711,219.362 63.388,219.939 68.534,219.939C69.9,219.939 71.37,219.913 72.946,219.861C74.521,219.808 76.359,219.677 78.46,219.467L78.46,244.517L56.875,244.517C43.641,244.517 34.661,241.13 29.934,234.355C25.208,227.581 22.845,218.784 22.845,207.966L22.845,95.948L0,95.948L0,72.788L22.845,72.788L22.845,25.996ZM87.032,72.788L113.973,72.788L113.973,104.928C116.179,99.256 121.588,92.35 130.201,84.21C138.814,76.07 148.739,72 159.978,72C160.503,72 161.396,72.053 162.656,72.158C163.917,72.263 166.07,72.473 169.116,72.788L169.116,102.722C167.435,102.407 165.886,102.197 164.468,102.092C163.05,101.987 161.501,101.935 159.82,101.935C145.536,101.935 134.56,106.53 126.893,115.72C119.225,124.911 115.391,135.493 115.391,147.467L115.391,244.517L87.032,244.517L87.032,72.788ZM206.678,72.788L206.678,183.23C206.678,191.843 208.043,198.88 210.774,204.342C215.816,214.425 225.216,219.467 238.975,219.467C258.722,219.467 272.166,210.644 279.308,192.998C283.194,183.545 285.138,170.574 285.138,154.084L285.138,72.788L313.497,72.788L313.497,244.517L286.713,244.517L287.028,215.055C283.352,221.462 278.783,226.872 273.321,231.283C262.503,240.106 249.374,244.517 233.934,244.517C209.881,244.517 193.496,236.482 184.778,220.412C180.052,211.799 177.689,200.298 177.689,185.909L177.689,72.788L206.678,72.788ZM401.789,66.013C413.763,66.013 425.369,68.823 436.608,74.442C447.846,80.062 456.407,87.335 462.288,96.263C467.96,104.771 471.741,114.696 473.632,126.04C475.313,133.812 476.153,146.206 476.153,163.222L352.476,163.222C353.001,180.342 357.045,194.075 364.608,204.421C372.17,214.767 383.881,219.939 399.741,219.939C414.551,219.939 426.367,215.055 435.19,205.287C440.232,199.616 443.803,193.051 445.903,185.594L473.79,185.594C473.054,191.791 470.612,198.697 466.464,206.311C462.315,213.926 457.667,220.15 452.52,224.981C443.908,233.384 433.247,239.056 420.538,241.996C413.711,243.677 405.991,244.517 397.378,244.517C376.371,244.517 358.568,236.876 343.969,221.594C329.369,206.311 322.069,184.911 322.069,157.392C322.069,130.294 329.422,108.289 344.126,91.379C358.831,74.469 378.052,66.013 401.789,66.013ZM447.006,140.692C445.851,128.403 443.172,118.582 438.971,111.23C431.199,97.576 418.227,90.749 400.056,90.749C387.032,90.749 376.109,95.449 367.286,104.849C358.463,114.25 353.789,126.197 353.264,140.692L447.006,140.692ZM596.586,0C637.444,0 667.693,13.129 687.335,39.387C702.669,59.869 710.337,86.075 710.337,118.005C710.337,152.561 701.567,181.287 684.026,204.185C663.44,231.073 634.083,244.517 595.956,244.517C560.349,244.517 532.358,232.754 511.982,209.226C493.811,186.539 484.726,157.865 484.726,123.204C484.726,91.904 492.498,65.121 508.043,42.854C527.999,14.285 557.514,0 596.586,0ZM599.737,216.473C627.361,216.473 647.343,206.574 659.685,186.775C672.026,166.976 678.197,144.211 678.197,118.477C678.197,91.274 671.081,69.374 656.849,52.779C642.617,36.184 623.159,27.886 598.477,27.886C574.529,27.886 554.993,36.105 539.868,52.543C524.743,68.981 517.181,93.217 517.181,125.252C517.181,150.88 523.667,172.491 536.638,190.084C549.61,207.677 570.643,216.473 599.737,216.473ZM748.38,163.064C749.116,176.193 752.214,186.854 757.676,195.047C768.074,210.381 786.402,218.049 812.661,218.049C824.424,218.049 835.138,216.368 844.801,213.007C863.497,206.495 872.845,194.837 872.845,178.031C872.845,165.427 868.906,156.447 861.028,151.09C853.046,145.839 840.547,141.27 823.532,137.383L792.179,130.294C771.698,125.672 757.203,120.578 748.695,115.011C733.991,105.348 726.638,90.906 726.638,71.685C726.638,50.889 733.833,33.821 748.223,20.481C762.612,7.142 782.989,0.473 809.352,0.473C833.615,0.473 854.228,6.328 871.19,18.039C888.153,29.751 896.635,48.473 896.635,74.206L867.173,74.206C865.597,61.812 862.236,52.307 857.09,45.689C847.532,33.611 831.304,27.571 808.407,27.571C789.921,27.571 776.634,31.457 768.547,39.23C760.459,47.002 756.415,56.035 756.415,66.328C756.415,77.672 761.142,85.97 770.595,91.221C776.792,94.582 790.814,98.784 812.661,103.825L845.116,111.23C860.766,114.801 872.845,119.685 881.352,125.882C896.057,136.701 903.409,152.403 903.409,172.99C903.409,198.618 894.088,216.946 875.444,227.975C856.801,239.003 835.138,244.517 810.455,244.517C781.676,244.517 759.146,237.165 742.866,222.46C726.586,207.861 718.603,188.062 718.919,163.064L748.38,163.064Z" style="fill:#ffffff;"/></g></svg>