<?xml version="1.0" encoding="UTF-8" standalone="no"?><!DOCTYPE svg PUBLIC "-//W3C//DTD SVG 1.1//EN" "http://www.w3.org/Graphics/SVG/1.1/DTD/svg11.dtd"><svg width="114px" height="270px" version="1.1" xmlns="http://www.w3.org/2000/svg" xmlns:xlink="http://www.w3.org/1999/xlink" xml:space="preserve" xmlns:serif="http://www.serif.com/" style="fill-rule:evenodd;clip-rule:evenodd;stroke-linejoin:round;stroke-miterlimit:2;"><g transform="matrix(0.75,0,0,0.75,-2605.44,-1906.37)"><g id="Artboard4" transform="matrix(0.420043,0,0,1,2003.92,-859.546)"><rect x="3499.65" y="3401.38" width="359.827" height="359.827" style="fill:none;"/><clipPath id="_clip1"><rect x="3499.65" y="3401.38" width="359.827" height="359.827"/></clipPath><g clip-path="url(#_clip1)"><g transform="matrix(3.0503,0,0,1.60319,1007.93,-686.101)"><g transform="matrix(1.25126,0,0,1,-4142.57,-27.9814)"><path d="M4049.7,2802.02L4028.32,2797.95C4018.24,2796.03 4012.39,2793.8 4011.05,2793.29C4003.64,2790.46 3999.86,2786.59 3999.07,2785.79C3998.29,2784.99 3994.45,2781.1 3992.22,2773.69C3990.06,2766.49 3990.05,2756.86 3990.05,2755.39L3990.05,2654.14L3963.56,2649.1L3963.56,2623.41L3974.61,2615.74L3990.05,2618.68L3990.05,2585.25L4001.1,2577.58L4026.69,2582.45L4026.69,2625.65L4056.44,2632.5L4056.44,2660.8L4049.7,2665.49L4026.69,2661.12L4026.69,2748.33C4026.69,2752.84 4027.29,2755.12 4027.44,2755.69C4028.2,2758.55 4029.97,2760.16 4030.3,2760.45C4030.7,2760.81 4032.41,2762.36 4036.17,2763.53C4036.94,2763.77 4039.94,2764.7 4045.96,2765.84L4057.84,2768.1L4057.84,2796.18L4049.7,2802.02Z" style="fill:rgb(51,49,48);"/></g><g transform="matrix(1.25126,0,0,1,-3860.02,-96.811)"><path d="M3767.29,2700.98L3767.29,2657.78L3789.83,2662.06L3789.83,2705.26L3820.84,2711.16L3820.84,2730.63L3789.83,2724.73L3789.83,2826.68C3789.83,2831.43 3790.47,2833.83 3790.63,2834.44C3791.5,2837.74 3793.56,2839.59 3793.94,2839.94C3794.37,2840.33 3796.25,2842.05 3800.38,2843.34C3801.17,2843.58 3804.21,2844.53 3810.34,2845.69L3820.84,2847.69L3820.84,2867.16L3803.08,2863.78C3793.3,2861.92 3787.63,2859.76 3786.33,2859.26C3779.6,2856.69 3776.15,2853.21 3775.43,2852.47C3774.74,2851.76 3771.33,2848.27 3769.34,2841.64C3767.28,2834.79 3767.29,2825.62 3767.29,2824.22L3767.29,2720.44L3740.8,2715.4L3740.8,2695.93L3767.29,2700.98Z" style="fill:white;"/></g></g></g></g></g></svg>